<?xml version="1.0" encoding="UTF-8"?>
<!DOCTYPE svg PUBLIC "-//W3C//DTD SVG 1.1//EN" "http://www.w3.org/Graphics/SVG/1.1/DTD/svg11.dtd">
<svg xmlns="http://www.w3.org/2000/svg" version="1.1" width="300px" height="300px" style="shape-rendering:geometricPrecision; text-rendering:geometricPrecision; image-rendering:optimizeQuality; fill-rule:evenodd; clip-rule:evenodd" xmlns:xlink="http://www.w3.org/1999/xlink">
<g><path style="opacity:1" fill="#110eac" d="M 147.5,-0.5 C 148.833,-0.5 150.167,-0.5 151.5,-0.5C 151.5,0.166667 151.833,0.5 152.5,0.5C 152.821,2.04814 153.821,2.71481 155.5,2.5C 158.661,3.91306 161.661,5.57973 164.5,7.5C 164.821,9.04814 165.821,9.71481 167.5,9.5C 198.833,27.5 230.167,45.5 261.5,63.5C 261.821,65.0481 262.821,65.7148 264.5,65.5C 269.443,67.9378 274.277,70.6045 279,73.5C 279.667,124.167 279.667,174.833 279,225.5C 236.191,249.815 193.691,274.481 151.5,299.5C 150.167,299.5 148.833,299.5 147.5,299.5C 129.5,288.833 111.5,278.167 93.5,267.5C 93.0269,266.094 92.0269,265.427 90.5,265.5C 82.572,261.559 74.9053,257.226 67.5,252.5C 67.0269,251.094 66.0269,250.427 64.5,250.5C 50.1665,243.002 36.1665,235.002 22.5,226.5C 22.2172,225.711 21.7172,225.044 21,224.5C 20.3333,174.5 20.3333,124.5 21,74.5C 21.7172,73.9558 22.2172,73.2891 22.5,72.5C 36.1665,63.9976 50.1665,55.9976 64.5,48.5C 66.0269,48.573 67.0269,47.9063 67.5,46.5C 74.9053,41.7744 82.572,37.4411 90.5,33.5C 92.0269,33.573 93.0269,32.9063 93.5,31.5C 100.905,26.7744 108.572,22.4411 116.5,18.5C 118.027,18.573 119.027,17.9063 119.5,16.5C 128.833,10.8333 138.167,5.16667 147.5,-0.5 Z"/></g>
<g><path style="opacity:0.918" fill="#9d8bd9" d="M 152.5,0.5 C 153.71,0.932053 154.71,1.59872 155.5,2.5C 153.821,2.71481 152.821,2.04814 152.5,0.5 Z"/></g>
<g><path style="opacity:0.949" fill="#9683d6" d="M 164.5,7.5 C 165.71,7.93205 166.71,8.59872 167.5,9.5C 165.821,9.71481 164.821,9.04814 164.5,7.5 Z"/></g>
<g><path style="opacity:0.804" fill="#8d83d6" d="M 119.5,16.5 C 119.027,17.9063 118.027,18.573 116.5,18.5C 116.973,17.0937 117.973,16.427 119.5,16.5 Z"/></g>
<g><path style="opacity:0.796" fill="#8f85d6" d="M 93.5,31.5 C 93.0269,32.9063 92.0269,33.573 90.5,33.5C 90.9731,32.0937 91.9731,31.427 93.5,31.5 Z"/></g>
<g><path style="opacity:0.784" fill="#9087d7" d="M 67.5,46.5 C 67.0269,47.9063 66.0269,48.573 64.5,48.5C 64.9731,47.0937 65.9731,46.427 67.5,46.5 Z"/></g>
<g><path style="opacity:0.949" fill="#9683d6" d="M 261.5,63.5 C 262.71,63.9321 263.71,64.5987 264.5,65.5C 262.821,65.7148 261.821,65.0481 261.5,63.5 Z"/></g>
<g><path style="opacity:0.902" fill="#2c28b5" d="M 22.5,72.5 C 22.2172,73.2891 21.7172,73.9558 21,74.5C 20.3333,124.5 20.3333,174.5 21,224.5C 21.7172,225.044 22.2172,225.711 22.5,226.5C 21.5041,226.586 20.6708,226.252 20,225.5C 19.3333,174.833 19.3333,124.167 20,73.5C 20.6708,72.7476 21.5041,72.4142 22.5,72.5 Z"/></g>
<g><path style="opacity:1" fill="#dfdef4" d="M 112.5,99.5 C 137.176,99.1669 161.842,99.5002 186.5,100.5C 189.747,104.659 192.747,108.992 195.5,113.5C 201.463,114.496 207.463,114.829 213.5,114.5C 213.5,119.167 213.5,123.833 213.5,128.5C 210.813,128.336 208.146,128.503 205.5,129C 206.333,129.833 207.167,130.667 208,131.5C 208.667,153.833 208.667,176.167 208,198.5C 199.585,199.483 191.085,199.817 182.5,199.5C 182.5,195.167 182.5,190.833 182.5,186.5C 160.5,186.5 138.5,186.5 116.5,186.5C 116.797,190.767 116.464,194.934 115.5,199C 107.254,199.815 99.0876,199.648 91,198.5C 90.3333,176.167 90.3333,153.833 91,131.5C 91.8333,130.667 92.6667,129.833 93.5,129C 90.854,128.503 88.1873,128.336 85.5,128.5C 85.5,123.833 85.5,119.167 85.5,114.5C 91.1764,114.666 96.8431,114.499 102.5,114C 106.054,109.286 109.387,104.453 112.5,99.5 Z"/></g>
<g><path style="opacity:1" fill="#0d0dac" d="M 202.5,129.5 C 167.167,130.833 131.833,130.833 96.5,129.5C 102.032,120.943 107.699,112.443 113.5,104C 137.507,103.167 161.507,103.334 185.5,104.5C 190.929,113.035 196.596,121.369 202.5,129.5 Z"/></g>
<g><path style="opacity:1" fill="#211cb0" d="M 88.5,117.5 C 92.5138,117.334 96.5138,117.501 100.5,118C 98.8333,120.333 97.1667,122.667 95.5,125C 93.1902,125.497 90.8568,125.663 88.5,125.5C 88.5,122.833 88.5,120.167 88.5,117.5 Z"/></g>
<g><path style="opacity:1" fill="#1d1aaf" d="M 198.5,118.5 C 202.298,117.517 206.298,117.183 210.5,117.5C 210.5,120.167 210.5,122.833 210.5,125.5C 208.143,125.663 205.81,125.497 203.5,125C 201.934,122.674 200.268,120.508 198.5,118.5 Z"/></g>
<g><path style="opacity:1" fill="#8686d5" d="M 96.5,129.5 C 131.833,130.833 167.167,130.833 202.5,129.5C 203.043,129.56 203.376,129.893 203.5,130.5C 167.5,131.833 131.5,131.833 95.5,130.5C 95.6236,129.893 95.9569,129.56 96.5,129.5 Z"/></g>
<g><path style="opacity:1" fill="#1612ad" d="M 94.5,134.5 C 131.167,134.5 167.833,134.5 204.5,134.5C 204.5,139.167 204.5,143.833 204.5,148.5C 197.167,148.5 189.833,148.5 182.5,148.5C 182.5,155.5 182.5,162.5 182.5,169.5C 189.833,169.5 197.167,169.5 204.5,169.5C 204.5,174.167 204.5,178.833 204.5,183.5C 167.833,183.5 131.167,183.5 94.5,183.5C 94.5,178.833 94.5,174.167 94.5,169.5C 101.508,169.666 108.508,169.5 115.5,169C 116.479,162.256 116.812,155.422 116.5,148.5C 109.167,148.5 101.833,148.5 94.5,148.5C 94.5,143.833 94.5,139.167 94.5,134.5 Z"/></g>
<g><path style="opacity:1" fill="#0e0eac" d="M 94.5,151.5 C 100.833,151.5 107.167,151.5 113.5,151.5C 113.5,156.167 113.5,160.833 113.5,165.5C 107.167,165.5 100.833,165.5 94.5,165.5C 94.5,160.833 94.5,156.167 94.5,151.5 Z"/></g>
<g><path style="opacity:1" fill="#0b0bac" d="M 185.5,151.5 C 191.833,151.5 198.167,151.5 204.5,151.5C 204.5,156.167 204.5,160.833 204.5,165.5C 198.167,165.5 191.833,165.5 185.5,165.5C 185.5,160.833 185.5,156.167 185.5,151.5 Z"/></g>
<g><path style="opacity:1" fill="#fafafd" d="M 121.5,152.5 C 139.836,152.333 158.17,152.5 176.5,153C 177.46,156.73 177.793,160.563 177.5,164.5C 158.833,164.5 140.167,164.5 121.5,164.5C 121.5,160.5 121.5,156.5 121.5,152.5 Z"/></g>
<g><path style="opacity:1" fill="#1c18af" d="M 124.5,155.5 C 141.167,155.5 157.833,155.5 174.5,155.5C 174.5,157.5 174.5,159.5 174.5,161.5C 157.833,161.5 141.167,161.5 124.5,161.5C 124.5,159.5 124.5,157.5 124.5,155.5 Z"/></g>
<g><path style="opacity:1" fill="#0b0bac" d="M 94.5,186.5 C 100.833,186.5 107.167,186.5 113.5,186.5C 113.5,189.5 113.5,192.5 113.5,195.5C 107.167,195.5 100.833,195.5 94.5,195.5C 94.5,192.5 94.5,189.5 94.5,186.5 Z"/></g>
<g><path style="opacity:1" fill="#0b0bac" d="M 185.5,186.5 C 191.833,186.5 198.167,186.5 204.5,186.5C 204.5,189.5 204.5,192.5 204.5,195.5C 198.167,195.5 191.833,195.5 185.5,195.5C 185.5,192.5 185.5,189.5 185.5,186.5 Z"/></g>
<g><path style="opacity:0.369" fill="#aaa4e1" d="M 64.5,250.5 C 66.0269,250.427 67.0269,251.094 67.5,252.5C 65.9731,252.573 64.9731,251.906 64.5,250.5 Z"/></g>
<g><path style="opacity:0.376" fill="#a9a2e0" d="M 90.5,265.5 C 92.0269,265.427 93.0269,266.094 93.5,267.5C 91.9731,267.573 90.9731,266.906 90.5,265.5 Z"/></g>
</svg>
